<svg xmlns="http://www.w3.org/2000/svg" xmlns:xlink="http://www.w3.org/1999/xlink" style="margin:auto;background:0 0;display:block;shape-rendering:auto" width="200" height="200" preserveAspectRatio="xMidYMid" viewBox="0 0 100 100"><g transform="rotate(0 50 50)"><rect width="6" height="12" x="47" y="24" fill="#1d3f72" rx="3" ry="6"><animate attributeName="opacity" begin="-1.8333333333333333s" dur="2s" keyTimes="0;1" repeatCount="indefinite" values="1;0"/></rect></g><g transform="rotate(30 50 50)"><rect width="6" height="12" x="47" y="24" fill="#1d3f72" rx="3" ry="6"><animate attributeName="opacity" begin="-1.6666666666666667s" dur="2s" keyTimes="0;1" repeatCount="indefinite" values="1;0"/></rect></g><g transform="rotate(60 50 50)"><rect width="6" height="12" x="47" y="24" fill="#1d3f72" rx="3" ry="6"><animate attributeName="opacity" begin="-1.5s" dur="2s" keyTimes="0;1" repeatCount="indefinite" values="1;0"/></rect></g><g transform="rotate(90 50 50)"><rect width="6" height="12" x="47" y="24" fill="#1d3f72" rx="3" ry="6"><animate attributeName="opacity" begin="-1.3333333333333333s" dur="2s" keyTimes="0;1" repeatCount="indefinite" values="1;0"/></rect></g><g transform="rotate(120 50 50)"><rect width="6" height="12" x="47" y="24" fill="#1d3f72" rx="3" ry="6"><animate attributeName="opacity" begin="-1.1666666666666667s" dur="2s" keyTimes="0;1" repeatCount="indefinite" values="1;0"/></rect></g><g transform="rotate(150 50 50)"><rect width="6" height="12" x="47" y="24" fill="#1d3f72" rx="3" ry="6"><animate attributeName="opacity" begin="-1s" dur="2s" keyTimes="0;1" repeatCount="indefinite" values="1;0"/></rect></g><g transform="rotate(180 50 50)"><rect width="6" height="12" x="47" y="24" fill="#1d3f72" rx="3" ry="6"><animate attributeName="opacity" begin="-0.8333333333333334s" dur="2s" keyTimes="0;1" repeatCount="indefinite" values="1;0"/></rect></g><g transform="rotate(210 50 50)"><rect width="6" height="12" x="47" y="24" fill="#1d3f72" rx="3" ry="6"><animate attributeName="opacity" begin="-0.6666666666666666s" dur="2s" keyTimes="0;1" repeatCount="indefinite" values="1;0"/></rect></g><g transform="rotate(240 50 50)"><rect width="6" height="12" x="47" y="24" fill="#1d3f72" rx="3" ry="6"><animate attributeName="opacity" begin="-0.5s" dur="2s" keyTimes="0;1" repeatCount="indefinite" values="1;0"/></rect></g><g transform="rotate(270 50 50)"><rect width="6" height="12" x="47" y="24" fill="#1d3f72" rx="3" ry="6"><animate attributeName="opacity" begin="-0.3333333333333333s" dur="2s" keyTimes="0;1" repeatCount="indefinite" values="1;0"/></rect></g><g transform="rotate(300 50 50)"><rect width="6" height="12" x="47" y="24" fill="#1d3f72" rx="3" ry="6"><animate attributeName="opacity" begin="-0.16666666666666666s" dur="2s" keyTimes="0;1" repeatCount="indefinite" values="1;0"/></rect></g><g transform="rotate(330 50 50)"><rect width="6" height="12" x="47" y="24" fill="#1d3f72" rx="3" ry="6"><animate attributeName="opacity" begin="0s" dur="2s" keyTimes="0;1" repeatCount="indefinite" values="1;0"/></rect></g></svg>